<?xml version="1.0" encoding="utf-8"?>
<!-- Generator: Adobe Illustrator 16.0.0, SVG Export Plug-In . SVG Version: 6.00 Build 0)  -->
<!DOCTYPE svg PUBLIC "-//W3C//DTD SVG 1.1//EN" "http://www.w3.org/Graphics/SVG/1.1/DTD/svg11.dtd">
<svg version="1.1" id="Layer_1" xmlns:svg="http://www.w3.org/2000/svg"
	 xmlns="http://www.w3.org/2000/svg" xmlns:xlink="http://www.w3.org/1999/xlink" x="0px" y="0px" width="173px" height="173px"
	 viewBox="0 0 173 173" enable-background="new 0 0 173 173" xml:space="preserve">
<path fill="none" d="M130.5,18.115c-2-0.333-4-0.667-6-1c0-0.333,0-0.667,0-1c-3.333-0.333-6.667-0.667-10-1
	c-12.683-3.708-32.22-1.922-48-2c-2.155,1.753-5.696,0.006-9,1c-4.05,1.219-17.491,4.021-19,7c0,1,0,2,0,3
	c1.86,1.035,4.117,3.248,6,4c1.333,0,2.667,0,4,0c0,0.333,0,0.667,0,1c1,0,2,0,3,0c0,0.333,0,0.667,0,1c2,0,4,0,6,0
	c0,0.333,0,0.667,0,1c2.667,0,5.333,0,8,0c0,0.333,0,0.667,0,1c4.333,0,8.667,0,13,0c0,0.333,0,0.667,0,1
	c9.999-0.333,20.001-0.667,30-1c0-0.333,0-0.667,0-1c2.666,0,5.334,0,8,0c4.021-1.191,16.52-4.121,18-7c0-1,0-2,0-3
	c-1-0.333-2-0.667-3-1C131.167,19.449,130.833,18.782,130.5,18.115z"/>
<path fill="#FFFFFF" d="M97.5,78.115c-0.333,0-0.667,0-1,0c-0.333-1-0.667-2-1-3c-0.333,0-0.667,0-1,0c0-0.333,0-0.667,0-1
	c-0.667,0-1.333,0-2,0c0-0.333,0-0.667,0-1c-0.667,0-1.333,0-2,0c0-0.333,0-0.667,0-1c-7.44-2.827-14.599,4.312-16,8
	c-2.163,5.693,2.042,9.833,3,13c3.07,0.864,7.096,4.52,12,3c0-0.333,0-0.667,0-1c1,0,2,0,3,0c0.667-1,1.333-2,2-3
	c1-0.667,2-1.333,3-2c0.333-3.333,0.667-6.667,1-10c-0.333,0-0.667,0-1,0C97.5,79.449,97.5,78.782,97.5,78.115z"/>
<path fill="#FFFFFF" d="M159.5,20.115c0-0.667,0-1.333,0-2c-2.666-2-5.334-4-8-6c-0.667,0-1.333,0-2,0c0-0.333,0-0.667,0-1
	c-0.667,0-1.333,0-2,0c0-0.333,0-0.667,0-1c-0.667,0-1.333,0-2,0c0-0.333,0-0.667,0-1c-1,0-2,0-3,0c-18.371-8.129-43.87-9.587-71-9
	c-2.404,2.146-7.27-0.069-11,1c0,0.333,0,0.667,0,1c-2.333,0-4.667,0-7,0c0,0.333,0,0.667,0,1c-1.667,0-3.333,0-5,0
	c0,0.333,0,0.667,0,1c-1.667,0-3.333,0-5,0c0,0.333,0,0.667,0,1c-2.667,0.333-5.333,0.667-8,1c0,0.333,0,0.667,0,1c-1,0-2,0-3,0
	c0,0.333,0,0.667,0,1c-1.667,0.333-3.333,0.667-5,1c0,0.333,0,0.667,0,1c-1.333,0.333-2.667,0.667-4,1c0,0.333,0,0.667,0,1
	c-1.333,0.333-2.667,0.667-4,1c-0.333,0.667-0.667,1.333-1,2c-0.667,0-1.333,0-2,0c-2.107,1.512-2.682,4.555-5,6
	c0.156,9.299,0.934,16,3,23c0,2.333,0,4.667,0,7c0.333,0,0.667,0,1,0c0,2,0,4,0,6c0.333,0,0.667,0,1,0c0,1.667,0,3.333,0,5
	c0.333,0,0.667,0,1,0c0.667,6,1.333,12,2,18c1.79,6.02,3.939,15.751,4,23c2.333,2.666,4.667,5.334,7,8c0.667,0,1.333,0,2,0
	c0.333,0.667,0.667,1.333,1,2c1.333,0.333,2.667,0.667,4,1c0,0.333,0,0.667,0,1c2,0.667,4,1.333,6,2c0,0.333,0,0.667,0,1
	c2,0.333,4,0.667,6,1c19.856,7.825,54.138,7.718,74,0c2-0.333,4-0.667,6-1c0-0.333,0-0.667,0-1c0.667,0,1.333,0,2,0
	c0-0.333,0-0.667,0-1c0.667,0,1.333,0,2,0c0-0.333,0-0.667,0-1c0.667,0,1.333,0,2,0l2-2c0.667,0,1.333,0,2,0
	c0.333-0.667,0.667-1.333,1-2c0.667,0,1.333,0,2,0c1-1.333,2-2.667,3-4c1-0.667,2-1.333,3-2c0-0.667,0-1.333,0-2
	c0.333,0,0.667,0,1,0c0.667-5.666,1.333-11.334,2-17c3.182-10.743,3.868-24.33,7-35c0-2.333,0-4.667,0-7c0.333,0,0.667,0,1,0
	c1.258-4.251-0.439-9.141,2-12c0-3.667,0-7.333,0-11C160.833,20.782,160.167,20.449,159.5,20.115z M96.5,105.115
	c-2.586,2.635-12.448,3.515-17,2c0-0.333,0-0.667,0-1c-1,0-2,0-3,0c0-0.333,0-0.667,0-1c-0.667,0-1.333,0-2,0
	c-0.333-0.667-0.667-1.333-1-2c-0.667,0-1.333,0-2,0c0-0.333,0-0.667,0-1c-1.333-1-2.667-2-4-3c0-0.667,0-1.333,0-2
	c-0.667-0.333-1.333-0.667-2-1c-3.524-5.688-2.386-12.694-2-20c1.999-1.752,0.843-1.968,2-4c0.333,0,0.667,0,1,0
	c0-0.667,0-1.333,0-2c0.667-0.333,1.333-0.667,2-1c1.333-1.667,2.667-3.333,4-5c0.667,0,1.333,0,2,0c0-0.333,0-0.667,0-1
	c1.333-0.333,2.667-0.667,4-1c0-0.333,0-0.667,0-1c1.333,0,2.667,0,4,0c0-0.333,0-0.667,0-1c14.038-0.279,23.238,6.309,27,16
	C114.021,87.761,104.976,103.142,96.5,105.115z M134.5,24.115c-1.48,2.879-13.979,5.809-18,7c-2.666,0-5.334,0-8,0
	c0,0.333,0,0.667,0,1c-9.999,0.333-20.001,0.667-30,1c0-0.333,0-0.667,0-1c-4.333,0-8.667,0-13,0c0-0.333,0-0.667,0-1
	c-2.667,0-5.333,0-8,0c0-0.333,0-0.667,0-1c-2,0-4,0-6,0c0-0.333,0-0.667,0-1c-1,0-2,0-3,0c0-0.333,0-0.667,0-1
	c-1.333,0-2.667,0-4,0c-1.883-0.752-4.14-2.965-6-4c0-1,0-2,0-3c1.509-2.979,14.95-5.781,19-7c3.304-0.994,6.845,0.753,9-1
	c15.78,0.078,35.317-1.708,48,2c3.333,0.333,6.667,0.667,10,1c0,0.333,0,0.667,0,1c2,0.333,4,0.667,6,1c0.333,0.667,0.667,1.333,1,2
	c1,0.333,2,0.667,3,1C134.5,22.115,134.5,23.115,134.5,24.115z"/>
<path fill="#FFFFFF" d="M31.5,122.115c2.8,0.646,4.772,1.538,7,3c0.333,0.667,0.667,1.333,1,2c0.667,0,1.333,0,2,0
	c0,0.333,0,0.667,0,1c1.333,0.333,2.667,0.667,4,1c0,0.333,0,0.667,0,1c1,0,2,0,3,0c0,0.333,0,0.667,0,1c1,0,2,0,3,0
	c0,0.333,0,0.667,0,1c0.667,0,1.333,0,2,0c0,0.333,0,0.667,0,1c1,0,2,0,3,0c0,0.333,0,0.667,0,1c1.333,0,2.667,0,4,0
	c14.972,4.997,37.029,5.048,52,0c2.333-0.333,4.667-0.667,7-1c0-0.333,0-0.667,0-1c0.667,0,1.333,0,2,0c0-0.333,0-0.667,0-1
	c2-0.333,4-0.667,6-1c0-0.333,0-0.667,0-1c0.667,0,1.333,0,2,0c0-0.333,0-0.667,0-1c0.667,0,1.333,0,2,0c0-0.333,0-0.667,0-1
	c2.994-1.688,5.919-2.488,8-5c2.01,0.573,0.865-0.12,2,1c2.041,1.34,1.878,1.637,2,5c-2.166,2.499-0.877,6.345-2,10
	c-0.333,0-0.667,0-1,0c0,2,0,4,0,6c-0.333,0-0.667,0-1,0c0,1.666,0,3.334,0,5c-0.333,0-0.667,0-1,0c0,1.666,0,3.334,0,5
	c-0.333,0-0.667,0-1,0c0,1,0,2,0,3c-0.667,0.333-1.333,0.667-2,1c0,0.667,0,1.333,0,2l-2,2c-0.667,0-1.333,0-2,0
	c-0.333,0.667-0.667,1.333-1,2c-1,0.333-2,0.667-3,1c0,0.333,0,0.667,0,1c-0.667,0-1.333,0-2,0c0,0.333,0,0.667,0,1
	c-0.667,0-1.333,0-2,0c0,0.333,0,0.667,0,1c-1,0-2,0-3,0c0,0.333,0,0.667,0,1c-1,0-2,0-3,0c0,0.333,0,0.667,0,1c-1,0-2,0-3,0
	c0,0.333,0,0.667,0,1c-3,0.333-6,0.667-9,1c-16.6,4.9-40.223,1.154-53-4c-1,0-2,0-3,0c-4-2.666-8-5.334-12-8c0-0.667,0-1.333,0-2
	c-0.667-0.333-1.333-0.667-2-1c-0.667-4.333-1.333-8.667-2-13c-0.333,0-0.667,0-1,0c0-2,0-4,0-6c-0.446-1.521-3.807-12.057-3-14
	C29.5,124.115,31.21,122.684,31.5,122.115z"/>
</svg>
